  <svg width="33" height="97" viewBox="0 0 33 97" fill="none" xmlns="http://www.w3.org/2000/svg">
      <path d="M16.5 61L16.5 9.53674e-07" stroke="url(#paint0_linear_2_259)" />
      <path
        d="M4.672 88.192C5.296 88.192 5.76 87.712 5.76 87.088L5.76 79.392H8.272C8.832 79.392 9.264 78.96 9.264 78.416C9.264 77.856 8.848 77.44 8.272 77.44H1.088C0.528 77.44 0.096 77.856 0.096 78.416C0.096 78.96 0.528 79.392 1.088 79.392H3.6L3.6 87.088C3.6 87.712 4.064 88.192 4.672 88.192ZM15.973 77.248C12.837 77.248 10.373 79.648 10.373 82.72C10.373 85.792 12.821 88.192 15.973 88.192C19.125 88.192 21.605 85.776 21.605 82.72C21.605 79.664 19.125 77.248 15.973 77.248ZM15.989 79.248C17.957 79.248 19.381 80.704 19.381 82.72C19.381 84.736 17.957 86.192 15.989 86.192C14.005 86.192 12.597 84.752 12.597 82.72C12.597 80.688 14.005 79.248 15.989 79.248ZM25.1461 88.192C25.7541 88.192 26.2181 87.712 26.2181 87.088V84.272H28.0421C30.2661 84.272 31.8341 82.864 31.8341 80.848C31.8341 78.816 30.2981 77.44 28.0421 77.44H25.1621C24.5221 77.44 24.0581 77.904 24.0581 78.544L24.0581 87.088C24.0581 87.712 24.5221 88.192 25.1461 88.192ZM26.2181 82.384L26.2181 79.344H28.0261C29.0181 79.344 29.6261 79.936 29.6261 80.848C29.6261 81.792 29.0181 82.384 28.0261 82.384H26.2181Z"
        fill="white" />
      <defs>
        <linearGradient id="paint0_linear_2_259" x1="45.0042" y1="-11.8571" x2="45.0042" y2="78.2931"
          gradientUnits="userSpaceOnUse">
          <stop stop-color="white" />
          <stop offset="0.430036" stop-color="white" />
          <stop offset="0.927083" stop-color="white" stop-opacity="0.24" />
        </linearGradient>
      </defs>
    </svg>